<svg width="40" height="40" viewBox="0 0 40 40" fill="none" xmlns="http://www.w3.org/2000/svg">
  <rect width="40" height="40" rx="20" fill="#E5E7EB"/>
  <path d="M20 12C16.6863 12 14 14.6863 14 18C14 21.3137 16.6863 24 20 24C23.3137 24 26 21.3137 26 18C26 14.6863 23.3137 12 20 12ZM20 22C17.7909 22 16 20.2091 16 18C16 15.7909 17.7909 14 20 14C22.2091 14 24 15.7909 24 18C24 20.2091 22.2091 22 20 22Z" fill="#9CA3AF"/>
  <path d="M20 26C15.5817 26 12 29.5817 12 34H14C14 30.6863 16.6863 28 20 28C23.3137 28 26 30.6863 26 34H28C28 29.5817 24.4183 26 20 26Z" fill="#9CA3AF"/>
</svg>
